<?xml version="1.0" encoding="UTF-8"?>
<!DOCTYPE svg PUBLIC "-//W3C//DTD SVG 1.1//EN" "http://www.w3.org/Graphics/SVG/1.1/DTD/svg11.dtd">
<svg xmlns="http://www.w3.org/2000/svg" version="1.1" width="512px" height="512px" style="shape-rendering:geometricPrecision; text-rendering:geometricPrecision; image-rendering:optimizeQuality; fill-rule:evenodd; clip-rule:evenodd" xmlns:xlink="http://www.w3.org/1999/xlink">
<g><path style="opacity:0.998" fill="#25569f" d="M 232.5,-0.5 C 247.833,-0.5 263.167,-0.5 278.5,-0.5C 368.144,10.3879 435.644,54.7213 481,132.5C 497.695,163.971 507.861,197.304 511.5,232.5C 511.5,247.833 511.5,263.167 511.5,278.5C 510.573,284.177 509.573,289.844 508.5,295.5C 448.473,235.14 388.473,174.806 328.5,114.5C 306.128,114.066 283.794,114.566 261.5,116C 236.49,123.344 221.657,139.844 217,165.5C 216.5,187.831 216.333,210.164 216.5,232.5C 205.167,232.5 193.833,232.5 182.5,232.5C 182.17,251.341 182.503,270.007 183.5,288.5C 194.167,299.833 205.167,310.833 216.5,321.5C 216.168,354.004 216.502,386.338 217.5,418.5C 245.965,447.465 274.632,476.299 303.5,505C 306.146,505.497 308.813,505.664 311.5,505.5C 300.273,508.151 288.94,510.151 277.5,511.5C 262.833,511.5 248.167,511.5 233.5,511.5C 133.193,499.016 61.693,447.016 19,355.5C 8.86392,330.621 2.36392,304.954 -0.5,278.5C -0.5,263.167 -0.5,247.833 -0.5,232.5C 10.3879,142.856 54.7213,75.3562 132.5,30C 163.971,13.3053 197.304,3.1386 232.5,-0.5 Z"/></g>
<g><path style="opacity:1" fill="#f3f5f8" d="M 328.5,114.5 C 328.5,133.167 328.5,151.833 328.5,170.5C 313.83,170.333 299.163,170.5 284.5,171C 281.272,172.563 279.105,175.063 278,178.5C 277.5,196.497 277.333,214.497 277.5,232.5C 292.5,232.5 307.5,232.5 322.5,232.5C 320.767,248.826 319.101,265.159 317.5,281.5C 304.167,281.5 290.833,281.5 277.5,281.5C 277.5,326.833 277.5,372.167 277.5,417.5C 257.5,417.5 237.5,417.5 217.5,417.5C 217.832,374.33 217.499,331.33 216.5,288.5C 205.5,288.5 194.5,288.5 183.5,288.5C 182.503,270.007 182.17,251.341 182.5,232.5C 193.833,232.5 205.167,232.5 216.5,232.5C 216.333,210.164 216.5,187.831 217,165.5C 221.657,139.844 236.49,123.344 261.5,116C 283.794,114.566 306.128,114.066 328.5,114.5 Z"/></g>
<g><path style="opacity:1" fill="#1f4988" d="M 328.5,114.5 C 388.473,174.806 448.473,235.14 508.5,295.5C 494.587,374.542 453.587,435.042 385.5,477C 362.388,490.537 337.721,500.037 311.5,505.5C 308.813,505.664 306.146,505.497 303.5,505C 274.632,476.299 245.965,447.465 217.5,418.5C 237.674,418.83 257.674,418.497 277.5,417.5C 277.5,372.167 277.5,326.833 277.5,281.5C 290.833,281.5 304.167,281.5 317.5,281.5C 319.101,265.159 320.767,248.826 322.5,232.5C 307.5,232.5 292.5,232.5 277.5,232.5C 277.333,214.497 277.5,196.497 278,178.5C 279.105,175.063 281.272,172.563 284.5,171C 299.163,170.5 313.83,170.333 328.5,170.5C 328.5,151.833 328.5,133.167 328.5,114.5 Z"/></g>
<g><path style="opacity:1" fill="#1f4988" d="M 183.5,288.5 C 194.5,288.5 205.5,288.5 216.5,288.5C 216.5,299.5 216.5,310.5 216.5,321.5C 205.167,310.833 194.167,299.833 183.5,288.5 Z"/></g>
<g><path style="opacity:1" fill="#a9bad5" d="M 216.5,288.5 C 217.499,331.33 217.832,374.33 217.5,417.5C 237.5,417.5 257.5,417.5 277.5,417.5C 257.674,418.497 237.674,418.83 217.5,418.5C 216.502,386.338 216.168,354.004 216.5,321.5C 216.5,310.5 216.5,299.5 216.5,288.5 Z"/></g>
</svg>
