<?xml version="1.0" encoding="UTF-8"?>
<!DOCTYPE svg PUBLIC "-//W3C//DTD SVG 1.1//EN" "http://www.w3.org/Graphics/SVG/1.1/DTD/svg11.dtd">
<svg xmlns="http://www.w3.org/2000/svg" version="1.1" width="512px" height="512px" style="shape-rendering:geometricPrecision; text-rendering:geometricPrecision; image-rendering:optimizeQuality; fill-rule:evenodd; clip-rule:evenodd" xmlns:xlink="http://www.w3.org/1999/xlink">
<g><path style="opacity:0.99" fill="#000000" d="M 13.5,-0.5 C 53.8333,-0.5 94.1667,-0.5 134.5,-0.5C 141.997,2.83509 146.831,8.50176 149,16.5C 149.667,54.8333 149.667,93.1667 149,131.5C 146.833,141 141,146.833 131.5,149C 93.1667,149.667 54.8333,149.667 16.5,149C 8.50176,146.831 2.83509,141.997 -0.5,134.5C -0.5,94.1667 -0.5,53.8333 -0.5,13.5C 2.5,7.16667 7.16667,2.5 13.5,-0.5 Z"/></g>
<g><path style="opacity:0.99" fill="#000000" d="M 195.5,-0.5 C 235.5,-0.5 275.5,-0.5 315.5,-0.5C 323.22,2.05987 328.053,7.39321 330,15.5C 330.983,55.8928 330.649,96.2262 329,136.5C 325.817,143.679 320.317,147.846 312.5,149C 274.5,149.667 236.5,149.667 198.5,149C 190.683,147.846 185.183,143.679 182,136.5C 180.351,96.2262 180.017,55.8928 181,15.5C 182.947,7.39321 187.78,2.05987 195.5,-0.5 Z"/></g>
<g><path style="opacity:0.99" fill="#000000" d="M 376.5,-0.5 C 416.833,-0.5 457.167,-0.5 497.5,-0.5C 503.833,2.5 508.5,7.16667 511.5,13.5C 511.5,53.8333 511.5,94.1667 511.5,134.5C 508.165,141.997 502.498,146.831 494.5,149C 456.167,149.667 417.833,149.667 379.5,149C 369.667,147.167 363.833,141.333 362,131.5C 361.333,93.1667 361.333,54.8333 362,16.5C 364.169,8.50176 369.003,2.83509 376.5,-0.5 Z"/></g>
<g><path style="opacity:0.99" fill="#000000" d="M -0.5,315.5 C -0.5,275.5 -0.5,235.5 -0.5,195.5C 2.05987,187.78 7.39321,182.947 15.5,181C 55.8928,180.017 96.2262,180.351 136.5,182C 143.679,185.183 147.846,190.683 149,198.5C 149.667,236.5 149.667,274.5 149,312.5C 147.846,320.317 143.679,325.817 136.5,329C 96.2262,330.649 55.8928,330.983 15.5,330C 7.39321,328.053 2.05987,323.22 -0.5,315.5 Z"/></g>
<g><path style="opacity:0.99" fill="#000000" d="M 196.5,180.5 C 235.835,180.333 275.168,180.5 314.5,181C 322.333,183.5 327.5,188.667 330,196.5C 330.667,235.833 330.667,275.167 330,314.5C 327.5,322.333 322.333,327.5 314.5,330C 275.167,330.667 235.833,330.667 196.5,330C 188.667,327.5 183.5,322.333 181,314.5C 180.333,275.167 180.333,235.833 181,196.5C 183.685,188.65 188.852,183.316 196.5,180.5 Z"/></g>
<g><path style="opacity:0.99" fill="#000000" d="M 511.5,195.5 C 511.5,235.5 511.5,275.5 511.5,315.5C 508.94,323.22 503.607,328.053 495.5,330C 455.107,330.983 414.774,330.649 374.5,329C 367.321,325.817 363.154,320.317 362,312.5C 361.333,274.5 361.333,236.5 362,198.5C 363.154,190.683 367.321,185.183 374.5,182C 414.774,180.351 455.107,180.017 495.5,181C 503.607,182.947 508.94,187.78 511.5,195.5 Z"/></g>
<g><path style="opacity:0.99" fill="#000000" d="M 134.5,511.5 C 94.5,511.5 54.5,511.5 14.5,511.5C 7.16667,508.833 2.16667,503.833 -0.5,496.5C -0.5,456.5 -0.5,416.5 -0.5,376.5C 2.83509,369.003 8.50176,364.169 16.5,362C 54.8333,361.333 93.1667,361.333 131.5,362C 141.333,363.833 147.167,369.667 149,379.5C 149.667,417.833 149.667,456.167 149,494.5C 146.831,502.498 141.997,508.165 134.5,511.5 Z"/></g>
<g><path style="opacity:0.99" fill="#000000" d="M 315.5,511.5 C 275.5,511.5 235.5,511.5 195.5,511.5C 187.78,508.94 182.947,503.607 181,495.5C 180.017,455.107 180.351,414.774 182,374.5C 185.183,367.321 190.683,363.154 198.5,362C 236.5,361.333 274.5,361.333 312.5,362C 320.317,363.154 325.817,367.321 329,374.5C 330.649,414.774 330.983,455.107 330,495.5C 328.053,503.607 323.22,508.94 315.5,511.5 Z"/></g>
<g><path style="opacity:0.99" fill="#000000" d="M 511.5,376.5 C 511.5,416.833 511.5,457.167 511.5,497.5C 508.414,504.254 503.414,508.921 496.5,511.5C 456.5,511.5 416.5,511.5 376.5,511.5C 369.003,508.165 364.169,502.498 362,494.5C 361.333,456.167 361.333,417.833 362,379.5C 363.833,369.667 369.667,363.833 379.5,362C 417.833,361.333 456.167,361.333 494.5,362C 502.498,364.169 508.165,369.003 511.5,376.5 Z"/></g>
</svg>
