<?xml version="1.0" encoding="UTF-8"?>
<!DOCTYPE svg PUBLIC "-//W3C//DTD SVG 1.1//EN" "http://www.w3.org/Graphics/SVG/1.1/DTD/svg11.dtd">
<svg xmlns="http://www.w3.org/2000/svg" version="1.1" width="512px" height="512px" style="shape-rendering:geometricPrecision; text-rendering:geometricPrecision; image-rendering:optimizeQuality; fill-rule:evenodd; clip-rule:evenodd" xmlns:xlink="http://www.w3.org/1999/xlink">
<g><path style="opacity:0.998" fill="#0b69c7" d="M 232.5,-0.5 C 247.833,-0.5 263.167,-0.5 278.5,-0.5C 368.144,10.3879 435.644,54.7213 481,132.5C 497.695,163.971 507.861,197.304 511.5,232.5C 511.5,247.833 511.5,263.167 511.5,278.5C 500.612,368.144 456.279,435.644 378.5,481C 347.029,497.695 313.696,507.861 278.5,511.5C 263.167,511.5 247.833,511.5 232.5,511.5C 142.856,500.612 75.3562,456.279 30,378.5C 13.3053,347.029 3.1386,313.696 -0.5,278.5C -0.5,263.167 -0.5,247.833 -0.5,232.5C 10.3875,142.857 54.7208,75.3573 132.5,30C 163.971,13.3053 197.304,3.1386 232.5,-0.5 Z"/></g>
<g><path style="opacity:1" fill="#fcfdfe" d="M 155.5,127.5 C 183.993,126.495 198.159,140.161 198,168.5C 192,189.26 178.166,198.76 156.5,197C 135.655,190.493 126.489,176.327 129,154.5C 133.351,140.984 142.184,131.984 155.5,127.5 Z"/></g>
<g><path style="opacity:1" fill="#fdfefe" d="M 268.5,217.5 C 268.334,222.844 268.501,228.177 269,233.5C 269.717,232.956 270.217,232.289 270.5,231.5C 277.077,221.772 286.077,215.272 297.5,212C 318.13,206.794 337.797,209.127 356.5,219C 370.779,230.716 378.946,245.883 381,264.5C 382.623,302.471 382.956,340.471 382,378.5C 381.535,379.931 380.701,381.097 379.5,382C 363.901,383.62 348.234,383.953 332.5,383C 331.069,382.535 329.903,381.701 329,380.5C 327.979,346.546 326.979,312.546 326,278.5C 320.992,260.24 309.158,253.073 290.5,257C 280.175,261.129 273.675,268.629 271,279.5C 270.587,282.232 269.92,284.899 269,287.5C 268.985,318.586 268.318,349.586 267,380.5C 265.829,381.893 264.329,382.727 262.5,383C 248.167,383.667 233.833,383.667 219.5,383C 217.274,381.773 215.774,379.939 215,377.5C 214.333,324.167 214.333,270.833 215,217.5C 216.167,215 218,213.167 220.5,212C 234.5,211.333 248.5,211.333 262.5,212C 265.607,212.706 267.607,214.539 268.5,217.5 Z"/></g>
<g><path style="opacity:1" fill="#fdfefe" d="M 142.5,211.5 C 156.171,211.333 169.837,211.5 183.5,212C 186.583,212.786 188.749,214.619 190,217.5C 190.667,270.833 190.667,324.167 190,377.5C 188.74,380.428 186.573,382.261 183.5,383C 169.5,383.667 155.5,383.667 141.5,383C 139.43,382.052 137.93,380.552 137,378.5C 136.333,324.5 136.333,270.5 137,216.5C 138.73,214.598 140.563,212.931 142.5,211.5 Z"/></g>
<g><path style="opacity:1" fill="#80b0e1" d="M 268.5,217.5 C 269.167,222.167 269.833,226.833 270.5,231.5C 270.217,232.289 269.717,232.956 269,233.5C 268.501,228.177 268.334,222.844 268.5,217.5 Z"/></g>
</svg>
